HIERARCHY
ROOT ROOT
{
	OFFSET 0.000000 56.020000 -5.659234
	CHANNELS 6 Xposition Yposition Zposition Xrotation Yrotation Zrotation 
	JOINT C_spine0001_bind_JNT
	{
		OFFSET 0.000000 1.618999 0.000000
		CHANNELS 3 Xrotation Yrotation Zrotation
		JOINT C_spine0002_bind_JNT
		{
			OFFSET 0.000000 4.942001 0.000001
			CHANNELS 3 Xrotation Yrotation Zrotation
			JOINT C_spine0003_bind_JNT
			{
				OFFSET 0.000000 4.942001 -0.000000
				CHANNELS 3 Xrotation Yrotation Zrotation
				JOINT C_neck0001_bind_JNT
				{
					OFFSET 0.000000 17.026009 -0.000000
					CHANNELS 3 Xrotation Yrotation Zrotation
					JOINT C_neck0002_bind_JNT
					{
						OFFSET 0.000000 3.249985 0.000000
						CHANNELS 3 Xrotation Yrotation Zrotation
						JOINT C_head_bind_JNT
						{
							OFFSET 0.000000 5.278008 0.000000
							CHANNELS 3 Xrotation Yrotation Zrotation
							End Site
							{
								OFFSET 0.000000 0.000000 0.000000
							}
						}
					}
				}
				JOINT L_clavicle_bind_JNT
				{
					OFFSET 4.590000 12.067001 0.834000
					CHANNELS 3 Xrotation Yrotation Zrotation
					JOINT L_armUpper0001_bind_JNT
					{
						OFFSET 7.812635 0.512001 -3.452945
						CHANNELS 3 Xrotation Yrotation Zrotation
						JOINT L_armLower0001_bind_JNT
						{
							OFFSET 15.265892 -6.552116 -0.058157
							CHANNELS 3 Xrotation Yrotation Zrotation
							JOINT L_hand0001_bind_JNT
							{
								OFFSET 14.747667 -6.369995 5.049225
								CHANNELS 3 Xrotation Yrotation Zrotation
								End Site
								{
									OFFSET 0.000000 0.000000 0.000000
								}
							}
						}
					}
				}
				JOINT R_clavicle_bind_JNT
				{
					OFFSET -4.590000 12.067001 0.834000
					CHANNELS 3 Xrotation Yrotation Zrotation
					JOINT R_armUpper0001_bind_JNT
					{
						OFFSET -7.812635 0.512001 -3.452945
						CHANNELS 3 Xrotation Yrotation Zrotation
						JOINT R_armLower0001_bind_JNT
						{
							OFFSET -15.265890 -6.552124 -0.058160
							CHANNELS 3 Xrotation Yrotation Zrotation
							JOINT R_hand0001_bind_JNT
							{
								OFFSET -14.746784 -6.369629 5.048937
								CHANNELS 3 Xrotation Yrotation Zrotation
								End Site
								{
									OFFSET 0.000000 0.000000 0.000000
								}
							}
						}
					}
				}
			}
		}
	}
	JOINT C_pelvis0001_bind_JNT
	{
		OFFSET -0.000000 0.000000 0.000000
		CHANNELS 3 Xrotation Yrotation Zrotation
		JOINT L_legUpper0001_bind_JNT
		{
			OFFSET 6.599999 -6.027000 0.539000
			CHANNELS 3 Xrotation Yrotation Zrotation
			JOINT L_legLower0001_bind_JNT
			{
				OFFSET -0.140713 -19.187443 0.040261
				CHANNELS 3 Xrotation Yrotation Zrotation
				JOINT L_foot0001_bind_JNT
				{
					OFFSET -0.132215 -18.028637 -1.138370
					CHANNELS 3 Xrotation Yrotation Zrotation
					JOINT L_foot0002_bind_JNT
					{
						OFFSET 0.007014 -4.693133 9.886524
						CHANNELS 3 Xrotation Yrotation Zrotation
						End Site
						{
							OFFSET 0.000000 0.000000 0.000000
						}
					}
				}
			}
		}
		JOINT R_legUpper0001_bind_JNT
		{
			OFFSET -6.599999 -6.027000 0.539000
			CHANNELS 3 Xrotation Yrotation Zrotation
			JOINT R_legLower0001_bind_JNT
			{
				OFFSET 0.140710 -19.187164 0.040550
				CHANNELS 3 Xrotation Yrotation Zrotation
				JOINT R_foot0001_bind_JNT
				{
					OFFSET 0.132215 -18.028633 -1.138362
					CHANNELS 3 Xrotation Yrotation Zrotation
					JOINT R_foot0002_bind_JNT
					{
						OFFSET -0.007014 -4.693128 9.886505
						CHANNELS 3 Xrotation Yrotation Zrotation
						End Site
						{
							OFFSET 0.000000 0.000000 0.000000
						}
					}
				}
			}
		}
	}
}
MOTION
Frames: 6
Frame Time: 0.033333
-24.911203 47.865288 56.984871 -179.996674 16.453310 179.985886 -174.024338 3.121758 179.519913 7.692641 4.569583 0.630434 3.394875 4.584885 0.656764 -0.502579 0.029045 0.602116 0.374652 -2.450011 -1.291990 3.388427 -0.145750 0.226993 0.151691 20.176159 -5.643039 9.112913 15.438426 -57.566422 0.933078 19.361658 5.052063 -14.660018 -28.221886 -52.133549 -4.465258 -5.405734 0.385731 -10.277425 2.559049 58.445930 -0.196588 -6.201166 9.350562 -12.478253 23.508389 17.325924 -176.157532 3.183093 -179.891525 -21.231564 1.585193 -6.738160 33.993103 -3.011042 1.870990 -5.050603 1.199283 0.876647 0.494002 -0.742714 -0.857008 15.972673 1.209735 16.433769 1.487675 1.142678 -1.654592 -8.061934 -2.393343 -11.175467 -4.590926 0.070369 -1.189497 
-25.094866 47.855202 57.495922 -179.993439 16.073933 179.985565 -174.263458 3.100292 179.785507 7.618773 4.786087 0.297787 3.339703 4.745664 0.412861 -0.348044 0.069197 0.637525 0.319164 -2.524967 -1.257072 3.027387 -0.075394 -0.151435 0.257259 20.227648 -5.493301 8.907998 15.826010 -57.507156 1.182425 19.197096 4.946343 -13.975944 -28.502155 -51.888580 -4.777633 -4.875767 -0.082403 -10.912797 2.907724 58.721279 -0.044694 -5.001361 10.546957 -11.779979 23.499041 15.859493 -176.256729 3.183635 -179.671982 -19.517284 1.798266 -7.794731 26.558655 -1.107962 1.078804 -3.560779 -0.265658 -1.749148 -0.113524 -0.695931 -0.953692 16.788443 1.010328 16.446339 0.969427 0.837486 -2.203625 -7.917182 -2.276652 -10.743067 -4.958759 -0.054129 -1.358894 
-25.270836 47.864311 58.040070 -179.994598 16.027040 179.991318 -174.434189 2.606720 179.862610 7.330941 4.987504 0.076218 3.480131 4.775541 0.366926 -0.374245 0.033268 0.732020 0.306563 -2.377362 -1.210429 3.166165 -0.042025 -0.448013 0.365475 20.366245 -5.734801 8.716230 15.747820 -57.457203 0.935652 18.925964 4.946452 -14.272329 -28.764206 -52.076057 -5.081554 -4.446447 -0.082419 -11.774898 3.404130 58.928036 0.158195 -3.929382 11.318751 -11.154457 23.524199 14.212468 -176.530319 2.761887 -179.485306 -18.128447 1.842124 -8.425900 20.763323 0.780740 0.760609 -2.902457 -1.847618 -3.754922 -0.496217 -0.448690 -1.328037 17.346518 1.024274 16.631493 0.478761 0.682171 -2.625437 -7.860231 -2.715326 -10.488870 -5.053134 0.193401 -1.448091 
-25.431679 47.801640 58.628510 -179.990372 15.584019 179.975403 -174.649948 2.781240 -179.958313 7.267892 5.213023 -0.182364 3.232391 5.036773 0.286196 -0.423119 0.030520 0.769208 0.307188 -2.312922 -1.229724 3.422498 0.202404 -0.607329 0.614522 20.233137 -6.070415 8.411736 15.920868 -57.230564 1.178414 18.467274 4.264698 -14.239841 -28.859726 -51.737907 -5.163720 -4.317130 -0.234815 -12.573987 4.016606 59.113281 0.412836 -2.756447 12.238976 -10.125949 23.606752 13.054301 -176.610840 2.934647 -179.322800 -16.172094 2.039877 -9.389611 15.454231 2.304636 0.774272 -1.634116 -2.507244 -3.608703 -0.363645 -0.226768 -1.563543 18.140760 1.131067 16.393000 0.082092 -0.012474 -2.661369 -7.829204 -2.484135 -10.379105 -5.533112 0.323954 -1.523644 
-25.633595 47.741890 59.225731 -179.986572 15.338346 179.978119 -174.869675 2.713440 -179.944336 7.028891 5.326251 -0.331017 3.188836 4.976304 0.088514 -0.495973 0.070950 0.908835 0.409164 -2.058367 -1.166222 3.358808 0.404501 -0.667522 0.588526 20.367733 -6.035248 8.387197 15.744362 -57.440685 0.962062 18.085699 3.951377 -14.633471 -28.998543 -51.444096 -5.338974 -3.896025 -0.068093 -12.692883 4.149487 59.435654 0.711338 -1.815417 12.763535 -9.436369 23.615664 12.068193 -176.902496 2.905555 -179.331146 -14.690198 2.113695 -9.840181 12.291617 2.947569 0.759675 -0.975337 -3.438801 -2.673201 -0.379800 -0.124376 -1.375889 18.741415 1.726931 16.559179 -0.750652 -0.463806 -2.832064 -7.681006 -2.493694 -10.182607 -5.693117 0.373345 -1.575574 
-25.859875 47.734272 59.947571 -179.991653 14.694881 179.986420 -175.178329 3.122672 -179.655807 6.771905 5.383959 -0.621056 3.036858 5.185180 -0.043926 -0.579686 -0.067489 0.812408 0.446774 -1.788290 -1.160834 3.520610 0.338408 -0.499336 0.643951 20.239756 -6.107973 8.350349 15.669276 -57.606968 0.876936 17.702032 3.305013 -14.723995 -29.165928 -50.990223 -5.315868 -3.652977 0.024555 -12.872621 4.296295 59.576916 1.359017 -0.993511 13.048262 -9.290307 23.480453 11.548154 -177.160843 3.300651 -179.109451 -12.991899 1.875996 -10.753798 9.837979 3.619121 0.713929 -0.055579 -4.123738 -0.799076 -0.309570 -0.197568 -0.844571 19.578541 2.192305 16.302935 -1.500979 -1.016720 -2.757916 -7.467264 -2.395087 -9.831398 -6.204183 0.362345 -1.689060 
